# xmcd
#
# Track frame offsets: 
#        150
#        19712
#        38825
#        57150
#        75075
#        97425
#        116687
#        136025
#        158000
#        172725
#        190012
#        210975
#        233525
#
# Disc length: 3431 seconds
#
# Revision: 6
# Processed by: cddbd v1.5.2PL0 Copyright (c) Steve Scherf et al.
# Submitted via: ExactAudioCopy v1.3
#
DISCID=900d650d
DTITLE=??? - ????13? XRCD
DYEAR=2002
DGENRE=Pop
TTITLE0=???? ??????
TTITLE1=?????
TTITLE2=??
TTITLE3=?????
TTITLE4=?????
TTITLE5=??
TTITLE6=?????????
TTITLE7=?????
TTITLE8=??
TTITLE9=???
TTITLE10=??
TTITLE11=??
TTITLE12=?????
EXTD=YEAR: 2002
EXTT0=
EXTT1=
EXTT2=
EXTT3=
EXTT4=
EXTT5=
EXTT6=
EXTT7=
EXTT8=
EXTT9=
EXTT10=
EXTT11=
EXTT12=
PLAYORDER=
